<svg xmlns="http://www.w3.org/2000/svg" width="24" height="24" viewBox="0 0 24 24" fill="none">
  <g clip-path="url(#clip0_92_2220)">
    <mask id="mask0_92_2220" style="mask-type:luminance" maskUnits="userSpaceOnUse" x="0" y="0" width="24" height="24">
      <path d="M12 24C9.62663 24 7.30655 23.2962 5.33316 21.9776C3.35977 20.6591 1.8217 18.7849 0.913451 16.5922C0.00519937 14.3995 -0.232441 11.9867 0.230582 9.65892C0.693605 7.33115 1.83649 5.19295 3.51472 3.51472C5.19295 1.83649 7.33115 0.693605 9.65892 0.230582C11.9867 -0.232441 14.3995 0.00519937 16.5922 0.913451C18.7849 1.8217 20.6591 3.35977 21.9776 5.33316C23.2962 7.30655 24 9.62663 24 12C23.9965 15.1815 22.7311 18.2318 20.4814 20.4814C18.2318 22.7311 15.1815 23.9965 12 24ZM12 1.50001C9.9233 1.50001 7.89323 2.11582 6.16652 3.26957C4.4398 4.42333 3.09399 6.06321 2.29927 7.98183C1.50455 9.90045 1.29662 12.0117 1.70176 14.0485C2.1069 16.0853 3.10693 17.9562 4.57538 19.4246C6.04384 20.8931 7.91476 21.8931 9.95156 22.2983C11.9884 22.7034 14.0996 22.4955 16.0182 21.7007C17.9368 20.906 19.5767 19.5602 20.7304 17.8335C21.8842 16.1068 22.5 14.0767 22.5 12C22.497 9.21615 21.3898 6.54716 19.4213 4.57867C17.4529 2.61019 14.7839 1.50298 12 1.50001Z" fill="white"/>
    </mask>
    <g mask="url(#mask0_92_2220)">
      <path d="M5.15625 50.625C20.5339 50.625 33 38.1589 33 22.7812C33 7.40357 20.5339 -5.0625 5.15625 -5.0625C-10.2214 -5.0625 -22.6875 7.40357 -22.6875 22.7812C-22.6875 38.1589 -10.2214 50.625 5.15625 50.625Z" fill="#FAFAFA"/>
    </g>
    <mask id="mask1_92_2220" style="mask-type:luminance" maskUnits="userSpaceOnUse" x="9" y="9" width="6" height="6">
      <path d="M12 9C11.4067 9 10.8266 9.17595 10.3333 9.50559C9.83994 9.83524 9.45543 10.3038 9.22836 10.8519C9.0013 11.4001 8.94189 12.0033 9.05765 12.5853C9.1734 13.1672 9.45912 13.7018 9.87868 14.1213C10.2982 14.5409 10.8328 14.8266 11.4147 14.9424C11.9967 15.0581 12.5999 14.9987 13.1481 14.7716C13.6962 14.5446 14.1648 14.1601 14.4944 13.6667C14.8241 13.1734 15 12.5933 15 12C15 11.2044 14.6839 10.4413 14.1213 9.87868C13.5587 9.31607 12.7957 9 12 9ZM12 13.5C11.7033 13.5 11.4133 13.412 11.1666 13.2472C10.92 13.0824 10.7277 12.8481 10.6142 12.574C10.5007 12.2999 10.4709 11.9983 10.5288 11.7074C10.5867 11.4164 10.7296 11.1491 10.9393 10.9393C11.1491 10.7296 11.4164 10.5867 11.7074 10.5288C11.9983 10.4709 12.2999 10.5006 12.574 10.6142C12.8481 10.7277 13.0824 10.92 13.2472 11.1666C13.412 11.4133 13.5 11.7033 13.5 12C13.5 12.3978 13.342 12.7794 13.0607 13.0607C12.7794 13.342 12.3978 13.5 12 13.5Z" fill="white"/>
    </mask>
    <g mask="url(#mask1_92_2220)">
      <path d="M5.15625 50.625C20.5339 50.625 33 38.1589 33 22.7812C33 7.40357 20.5339 -5.0625 5.15625 -5.0625C-10.2214 -5.0625 -22.6875 7.40357 -22.6875 22.7812C-22.6875 38.1589 -10.2214 50.625 5.15625 50.625Z" fill="#FAFAFA"/>
    </g>
    <mask id="mask2_92_2220" style="mask-type:luminance" maskUnits="userSpaceOnUse" x="5" y="5" width="14" height="14">
      <path d="M15.75 18.75H8.25C7.45435 18.75 6.69129 18.4339 6.12868 17.8713C5.56607 17.3087 5.25 16.5456 5.25 15.75V8.25C5.25 7.45435 5.56607 6.69129 6.12868 6.12868C6.69129 5.56607 7.45435 5.25 8.25 5.25H15.75C16.5456 5.25 17.3087 5.56607 17.8713 6.12868C18.4339 6.69129 18.75 7.45435 18.75 8.25V15.75C18.75 16.5456 18.4339 17.3087 17.8713 17.8713C17.3087 18.4339 16.5456 18.75 15.75 18.75ZM8.25 6.75C7.85218 6.75 7.47064 6.90804 7.18934 7.18934C6.90804 7.47064 6.75 7.85218 6.75 8.25V15.75C6.75 16.1478 6.90804 16.5294 7.18934 16.8107C7.47064 17.092 7.85218 17.25 8.25 17.25H15.75C16.1478 17.25 16.5294 17.092 16.8107 16.8107C17.092 16.5294 17.25 16.1478 17.25 15.75V8.25C17.25 7.85218 17.092 7.47064 16.8107 7.18934C16.5294 6.90804 16.1478 6.75 15.75 6.75H8.25Z" fill="white"/>
    </mask>
    <g mask="url(#mask2_92_2220)">
      <path d="M5.15625 50.625C20.5339 50.625 33 38.1589 33 22.7812C33 7.40357 20.5339 -5.0625 5.15625 -5.0625C-10.2214 -5.0625 -22.6875 7.40357 -22.6875 22.7812C-22.6875 38.1589 -10.2214 50.625 5.15625 50.625Z" fill="#FAFAFA"/>
    </g>
    <mask id="mask3_92_2220" style="mask-type:luminance" maskUnits="userSpaceOnUse" x="14" y="7" width="3" height="3">
      <path d="M15.375 9.5625C15.8928 9.5625 16.3125 9.14277 16.3125 8.625C16.3125 8.10723 15.8928 7.6875 15.375 7.6875C14.8572 7.6875 14.4375 8.10723 14.4375 8.625C14.4375 9.14277 14.8572 9.5625 15.375 9.5625Z" fill="white"/>
    </mask>
    <g mask="url(#mask3_92_2220)">
      <path d="M2.60054 61.1269C21.8232 61.1269 37.4062 45.5439 37.4062 26.3213C37.4062 7.09864 21.8232 -8.48438 2.60054 -8.48438C-16.6221 -8.48438 -32.2051 7.09864 -32.2051 26.3213C-32.2051 45.5439 -16.6221 61.1269 2.60054 61.1269Z" fill="#FAFAFA"/>
    </g>
  </g>
  <defs>
    <clipPath id="clip0_92_2220">
      <rect width="24" height="24" fill="white"/>
    </clipPath>
  </defs>
</svg>