<svg xmlns="http://www.w3.org/2000/svg" width="30" height="24" viewBox="0 0 30 24" fill="none">
  <g clip-path="url(#clip0_92_2252)">
    <path d="M29.5386 2.84102C28.4275 3.32568 27.2523 3.6478 26.0494 3.79747C27.3172 3.04525 28.265 1.8541 28.7133 0.449749C27.5265 1.1536 26.2281 1.64931 24.8743 1.91546C24.044 1.02833 22.9659 0.411524 21.7804 0.14524C20.5949 -0.121044 19.3566 -0.0244868 18.2267 0.422358C17.0967 0.869202 16.1274 1.64566 15.4446 2.65078C14.7619 3.65591 14.3973 4.84319 14.3983 6.05827C14.3937 6.52194 14.4407 6.98468 14.5387 7.43791C12.1296 7.3198 9.77251 6.69457 7.6216 5.60309C5.47069 4.51161 3.57435 2.97847 2.05656 1.10388C1.27732 2.43601 1.03584 4.01532 1.38141 5.51944C1.72698 7.02356 2.63354 8.3391 3.91607 9.19755C2.95791 9.17166 2.02 8.91584 1.18139 8.45165V8.51763C1.18297 9.91606 1.66628 11.2712 2.54996 12.3551C3.43365 13.4389 4.66375 14.1852 6.03322 14.4684C5.51513 14.6049 4.98119 14.672 4.44543 14.6678C4.06073 14.6746 3.67641 14.6399 3.29913 14.5643C3.69052 15.7662 4.44481 16.8172 5.45818 17.5726C6.47156 18.3281 7.69418 18.7508 8.95775 18.7827C6.81423 20.459 4.17067 21.3685 1.44952 21.3657C0.965062 21.3688 0.480897 21.341 0 21.2823C2.76901 23.0666 5.99566 24.0105 9.28976 23.9999C20.433 23.9999 26.5256 14.7692 26.5256 6.76789C26.5256 6.50006 26.5163 6.24183 26.5034 5.9851C27.6979 5.1303 28.7265 4.06484 29.5386 2.84102Z" fill="#FAFAFA"/>
  </g>
  <defs>
    <clipPath id="clip0_92_2252">
      <rect width="29.5386" height="24" fill="white"/>
    </clipPath>
  </defs>
</svg>