<svg xmlns="http://www.w3.org/2000/svg" width="25" height="24" viewBox="0 0 25 24" fill="none">
  <path d="M12.0703 22.75C6.14031 22.75 1.32031 17.93 1.32031 12C1.32031 6.07 6.14031 1.25 12.0703 1.25C18.0003 1.25 22.8203 6.07 22.8203 12C22.8203 17.93 18.0003 22.75 12.0703 22.75ZM12.0703 2.75C6.97031 2.75 2.82031 6.9 2.82031 12C2.82031 17.1 6.97031 21.25 12.0703 21.25C17.1703 21.25 21.3203 17.1 21.3203 12C21.3203 6.9 17.1703 2.75 12.0703 2.75Z" fill="#FAFAFA"/>
  <path d="M12.3105 16.75C9.69055 16.75 7.56055 14.62 7.56055 12C7.56055 9.38 9.69055 7.25 12.3105 7.25C13.4605 7.25 14.5806 7.67 15.4406 8.44C15.7506 8.71 15.7806 9.19 15.5106 9.5C15.2406 9.81 14.7606 9.84001 14.4506 9.57001C13.8606 9.05001 13.1005 8.76001 12.3105 8.76001C10.5205 8.76001 9.06055 10.22 9.06055 12.01C9.06055 13.8 10.5205 15.26 12.3105 15.26C13.0905 15.26 13.8606 14.97 14.4506 14.45C14.7606 14.18 15.2406 14.21 15.5106 14.52C15.7806 14.83 15.7506 15.31 15.4406 15.58C14.5706 16.33 13.4605 16.75 12.3105 16.75Z" fill="#FAFAFA"/>
</svg>