<?xml version="1.0" encoding="UTF-8" standalone="no"?>
<!DOCTYPE svg PUBLIC "-//W3C//DTD SVG 1.1//EN" "http://www.w3.org/Graphics/SVG/1.1/DTD/svg11.dtd">
<svg xmlns="http://www.w3.org/2000/svg" version="1.1" viewBox="0.00 0.00 463.00 486.00">
<path fill="#4a4947" d="
  M 85.93 129.44
  A 0.40 0.39 0.0 0 0 86.33 129.05
  Q 86.69 107.28 86.32 89.10
  Q 86.16 81.48 87.38 78.24
  C 92.08 65.76 105.58 68.30 116.00 68.21
  A 0.70 0.70 0.0 0 0 116.69 67.52
  Q 116.82 47.74 116.61 27.95
  C 116.57 24.88 116.57 19.36 117.92 16.55
  Q 122.54 6.93 133.72 6.97
  Q 162.58 7.06 191.99 7.02
  Q 203.10 7.00 207.16 16.09
  Q 208.75 19.64 208.67 26.68
  Q 208.41 48.57 208.62 67.68
  A 0.49 0.48 90.0 0 0 209.09 68.16
  Q 214.77 68.28 220.59 68.14
  C 228.78 67.94 236.19 70.77 238.48 78.88
  Q 239.44 82.27 239.40 87.75
  Q 239.23 106.77 239.34 128.89
  A 0.43 0.42 0.7 0 0 239.76 129.31
  Q 245.84 129.51 251.66 129.35
  C 262.80 129.05 270.08 135.07 270.01 146.64
  Q 269.90 167.31 269.93 189.86
  A 0.88 0.88 0.0 0 0 270.82 190.74
  C 280.90 190.58 291.02 190.31 300.75 191.52
  Q 356.81 198.50 392.21 241.83
  Q 417.74 273.08 422.02 314.25
  Q 422.92 322.98 422.86 333.21
  Q 422.63 375.59 422.84 419.31
  C 422.87 425.09 420.13 430.24 415.27 433.35
  C 413.17 434.69 410.95 435.01 408.54 435.01
  Q 300.23 435.00 191.73 435.02
  C 183.59 435.02 177.97 427.45 177.79 419.85
  Q 177.53 408.05 177.79 395.85
  Q 177.97 387.48 176.67 384.19
  C 170.34 368.24 147.11 372.86 147.18 390.00
  Q 147.25 403.80 147.33 418.50
  C 147.39 428.04 141.21 435.12 131.40 435.07
  Q 102.71 434.94 71.10 435.05
  C 62.67 435.08 56.05 428.85 56.05 420.38
  Q 56.01 284.64 56.01 144.30
  C 56.01 135.74 62.94 129.62 71.38 129.46
  Q 79.15 129.32 85.93 129.44
  Z
  M 178.08 38.17
  A 0.60 0.60 0.0 0 0 177.48 37.57
  L 147.92 37.57
  A 0.60 0.60 0.0 0 0 147.32 38.17
  L 147.32 67.81
  A 0.60 0.60 0.0 0 0 147.92 68.41
  L 177.48 68.41
  A 0.60 0.60 0.0 0 0 178.08 67.81
  L 178.08 38.17
  Z
  M 208.88 99.13
  A 0.55 0.55 0.0 0 0 208.33 98.58
  L 117.47 98.58
  A 0.55 0.55 0.0 0 0 116.92 99.13
  L 116.92 129.17
  A 0.55 0.55 0.0 0 0 117.47 129.72
  L 208.33 129.72
  A 0.55 0.55 0.0 0 0 208.88 129.17
  L 208.88 99.13
  Z
  M 116.85 387.18
  C 117.94 364.44 136.11 345.87 158.79 343.92
  C 178.59 342.22 195.92 353.55 204.35 371.21
  C 206.29 375.26 207.74 380.55 207.91 384.87
  Q 208.27 394.07 208.02 404.04
  A 0.78 0.78 0.0 0 0 208.80 404.84
  L 238.73 404.84
  A 0.58 0.57 0.0 0 0 239.31 404.27
  L 239.57 160.21
  A 0.36 0.36 0.0 0 0 239.21 159.85
  L 86.83 159.89
  Q 86.31 159.89 86.31 160.42
  L 86.32 404.20
  A 0.63 0.63 0.0 0 0 86.95 404.83
  L 115.77 404.85
  A 1.00 1.00 0.0 0 0 116.77 403.81
  Q 116.43 395.74 116.85 387.18
  Z
  M 369.92 262.67
  C 351.10 238.57 321.69 222.42 290.94 221.34
  Q 280.05 220.95 270.36 221.12
  A 0.43 0.42 -0.7 0 0 269.94 221.54
  L 269.94 404.49
  A 0.37 0.37 0.0 0 0 270.31 404.86
  L 391.72 404.84
  A 0.72 0.72 0.0 0 0 392.44 404.12
  Q 392.48 365.86 392.41 333.50
  Q 392.38 321.03 391.54 314.76
  Q 387.59 285.29 369.92 262.67
  Z"
/>
<rect fill="#4a4947" x="-15.26" y="-22.66" transform="translate(132.14,213.59) rotate(0.1)" width="30.52" height="45.32" rx="14.28"/>
<rect fill="#4a4947" x="-15.19" y="-22.67" transform="translate(193.49,213.61) rotate(-0.3)" width="30.38" height="45.34" rx="14.22"/>
<rect fill="#4a4947" x="-15.28" y="-22.63" transform="translate(132.13,289.93) rotate(-0.2)" width="30.56" height="45.26" rx="14.30"/>
<rect fill="#4a4947" x="-15.18" y="-22.69" transform="translate(193.49,289.92) rotate(-0.3)" width="30.36" height="45.38" rx="14.21"/>
<rect fill="#4a4947" x="-22.75" y="-15.11" transform="translate(323.47,297.70) rotate(0.2)" width="45.50" height="30.22" rx="14.18"/>
<rect fill="#4a4947" x="-22.71" y="-15.17" transform="translate(323.45,359.00) rotate(-0.2)" width="45.42" height="30.34" rx="14.22"/>
</svg>
