<?xml version="1.0" encoding="UTF-8" standalone="no"?>
<!DOCTYPE svg PUBLIC "-//W3C//DTD SVG 1.1//EN" "http://www.w3.org/Graphics/SVG/1.1/DTD/svg11.dtd">
<svg xmlns="http://www.w3.org/2000/svg" version="1.1" viewBox="0.00 0.00 529.00 471.00">
<path fill="#4a4947" d="
  M 449.28 203.22
  Q 449.22 145.77 449.26 85.17
  C 449.27 70.62 442.60 58.82 429.40 52.06
  C 420.87 47.70 409.65 47.56 400.94 51.43
  Q 385.32 58.38 380.93 74.60
  C 379.34 80.51 379.76 87.46 379.75 93.96
  A 0.55 0.55 0.0 0 0 380.30 94.51
  Q 389.00 94.46 397.60 94.52
  C 403.94 94.56 408.68 101.01 407.50 106.99
  C 406.14 113.86 400.64 115.88 394.41 115.84
  Q 368.92 115.66 342.25 115.75
  Q 335.76 115.77 332.59 111.14
  C 327.28 103.38 333.09 94.31 342.22 94.44
  Q 350.43 94.56 357.76 94.50
  A 1.10 1.09 87.6 0 0 358.84 93.32
  C 357.78 80.03 359.21 67.34 366.09 55.70
  Q 378.91 34.01 403.75 28.72
  C 422.35 24.76 442.41 31.24 455.29 45.47
  Q 470.24 61.99 470.26 84.32
  Q 470.31 142.73 470.22 203.17
  A 0.58 0.58 0.0 0 0 470.80 203.75
  L 487.22 203.73
  Q 487.72 203.73 487.72 204.22
  L 487.74 223.77
  A 1.01 1.01 0.0 0 1 486.73 224.78
  L 471.02 224.73
  A 0.80 0.80 0.0 0 0 470.22 225.53
  Q 470.20 251.11 470.28 278.52
  Q 470.32 290.95 469.51 298.23
  C 465.11 337.71 442.07 371.80 407.62 391.45
  Q 395.90 398.14 383.72 401.76
  A 0.90 0.90 0.0 0 0 383.11 402.86
  Q 385.07 410.11 387.43 418.22
  Q 388.95 423.43 388.69 426.74
  C 388.00 435.58 375.45 439.20 370.06 431.68
  Q 368.42 429.38 367.62 426.27
  Q 365.24 416.97 362.47 407.09
  Q 362.30 406.50 361.69 406.54
  C 355.25 407.00 349.10 407.41 342.68 407.41
  Q 260.39 407.33 179.92 407.31
  Q 173.28 407.31 165.17 406.48
  A 0.75 0.74 11.0 0 0 164.37 407.02
  Q 161.82 415.96 159.77 424.36
  Q 158.59 429.24 156.77 431.68
  C 152.71 437.13 144.78 437.23 140.40 431.86
  Q 136.85 427.51 138.37 421.96
  Q 141.05 412.24 143.70 402.75
  A 0.73 0.72 -73.4 0 0 143.23 401.86
  Q 110.86 391.44 89.03 367.72
  Q 61.95 338.29 57.22 296.74
  Q 56.59 291.17 56.55 280.26
  Q 56.46 253.09 56.61 225.41
  A 0.65 0.65 0.0 0 0 55.96 224.76
  L 40.51 224.77
  A 1.02 1.01 89.7 0 1 39.49 223.75
  L 39.50 204.24
  Q 39.50 203.72 40.01 203.72
  L 136.99 203.74
  A 1.02 1.01 87.9 0 0 138.00 202.64
  C 137.16 192.60 140.09 186.22 151.10 186.22
  Q 250.62 186.23 251.50 186.23
  Q 258.56 186.19 261.43 193.06
  C 262.60 195.84 262.16 199.95 262.10 203.05
  A 0.66 0.65 0.8 0 0 262.76 203.72
  L 448.78 203.72
  A 0.50 0.50 0.0 0 0 449.28 203.22
  Z
  M 241.2344 207.6782
  A 0.60 0.60 0.0 0 0 240.6333 207.0792
  L 159.4734 207.2209
  A 0.60 0.60 0.0 0 0 158.8745 207.8219
  L 159.0256 294.4218
  A 0.60 0.60 0.0 0 0 159.6267 295.0208
  L 240.7866 294.8791
  A 0.60 0.60 0.0 0 0 241.3855 294.2781
  L 241.2344 207.6782
  Z
  M 138.22 225.54
  A 1.01 1.01 0.0 0 0 137.21 224.53
  L 78.59 224.53
  A 1.01 1.01 0.0 0 0 77.58 225.54
  L 77.58 245.24
  A 1.01 1.01 0.0 0 0 78.59 246.25
  L 137.21 246.25
  A 1.01 1.01 0.0 0 0 138.22 245.24
  L 138.22 225.54
  Z
  M 449.26 225.02
  A 0.49 0.49 0.0 0 0 448.77 224.53
  L 262.61 224.53
  A 0.49 0.49 0.0 0 0 262.12 225.02
  L 262.12 245.76
  A 0.49 0.49 0.0 0 0 262.61 246.25
  L 448.77 246.25
  A 0.49 0.49 0.0 0 0 449.26 245.76
  L 449.26 225.02
  Z
  M 262.24 301.53
  C 262.33 309.82 259.82 315.84 250.50 315.81
  Q 170.41 315.61 154.73 315.86
  Q 146.74 315.99 144.35 314.81
  Q 138.20 311.77 138.22 304.73
  Q 138.27 287.65 138.19 267.95
  A 0.85 0.85 0.0 0 0 137.34 267.11
  L 78.39 267.06
  A 0.69 0.69 0.0 0 0 77.70 267.73
  Q 77.42 276.55 77.59 285.75
  C 78.67 343.27 124.67 386.65 181.75 386.59
  Q 192.95 386.58 345.05 386.49
  C 348.64 386.48 352.19 386.10 355.79 385.92
  Q 359.60 385.73 363.85 385.01
  Q 393.53 380.02 415.18 360.56
  Q 442.99 335.57 448.20 298.86
  C 449.68 288.41 449.44 278.09 449.25 267.54
  A 0.52 0.51 89.4 0 0 448.74 267.03
  L 262.56 267.00
  A 0.46 0.46 0.0 0 0 262.10 267.46
  Q 262.05 283.76 262.24 301.53
  Z"
/>
<rect fill="#4a4947" x="-10.50" y="-19.60" transform="translate(341.06,146.83) rotate(0.2)" width="21.00" height="39.20" rx="9.94"/>
<rect fill="#4a4947" x="-10.53" y="-19.61" transform="translate(369.17,146.83) rotate(0.2)" width="21.06" height="39.22" rx="9.98"/>
<rect fill="#4a4947" x="-10.46" y="-19.60" transform="translate(397.23,146.82) rotate(0.2)" width="20.92" height="39.20" rx="9.90"/>
</svg>
