<?xml version="1.0" encoding="UTF-8" standalone="no"?>
<!DOCTYPE svg PUBLIC "-//W3C//DTD SVG 1.1//EN" "http://www.w3.org/Graphics/SVG/1.1/DTD/svg11.dtd">
<svg xmlns="http://www.w3.org/2000/svg" version="1.1" viewBox="0.00 0.00 251.00 176.00">
<path fill="#494847" d="
  M 198.09 122.47
  L 198.12 101.23
  Q 198.12 100.58 197.47 100.58
  L 30.73 100.59
  A 0.44 0.43 0.0 0 0 30.29 101.02
  L 30.28 122.55
  A 0.52 0.51 0.0 0 0 30.80 123.06
  L 161.30 123.08
  Q 161.77 123.08 161.77 123.56
  L 161.77 128.03
  A 0.56 0.55 -90.0 0 1 161.22 128.59
  L 39.23 128.59
  Q 38.55 128.59 38.55 129.27
  L 38.55 133.99
  Q 38.55 134.28 38.26 134.28
  L 33.47 134.31
  Q 33.12 134.31 33.12 133.97
  L 33.08 129.22
  Q 33.08 128.62 32.47 128.61
  L 25.73 128.57
  A 0.62 0.61 0.5 0 1 25.12 127.96
  Q 25.06 84.04 25.20 40.15
  C 25.20 38.74 25.12 37.59 25.75 36.26
  Q 28.31 30.75 33.50 28.74
  Q 36.49 27.59 43.35 27.62
  Q 112.72 27.96 186.44 27.59
  C 196.39 27.54 203.80 31.82 203.79 42.90
  Q 203.74 87.42 203.77 127.55
  Q 203.77 128.59 202.73 128.59
  L 195.90 128.62
  Q 195.30 128.63 195.30 129.22
  L 195.28 134.00
  Q 195.28 134.28 195.00 134.29
  L 190.02 134.33
  A 0.31 0.31 0.0 0 1 189.71 134.02
  L 189.71 129.30
  Q 189.71 128.65 189.05 128.64
  L 179.04 128.61
  Q 178.47 128.61 178.47 128.04
  L 178.41 123.45
  Q 178.40 123.05 178.80 123.05
  L 197.53 123.03
  Q 198.09 123.02 198.09 122.47
  Z
  M 43.04 74.52
  Q 46.70 72.61 51.31 72.62
  Q 115.59 72.71 178.62 72.73
  Q 184.51 72.73 188.41 76.85
  C 193.21 81.91 192.38 88.32 192.27 94.81
  Q 192.27 95.06 192.51 95.06
  L 197.94 95.04
  Q 198.14 95.04 198.14 94.83
  Q 198.07 69.59 198.22 43.71
  C 198.25 37.95 196.07 33.30 189.41 33.30
  Q 114.60 33.30 38.33 33.38
  C 31.93 33.39 29.75 38.50 30.09 44.30
  Q 30.13 44.85 30.09 94.86
  Q 30.09 95.07 30.29 95.06
  L 35.78 95.02
  A 0.18 0.18 0.0 0 0 35.96 94.83
  C 35.36 87.15 35.43 78.50 43.04 74.52
  Z
  M 42.07 95.07
  L 186.37 95.07
  A 0.95 0.95 0.0 0 0 187.32 94.12
  L 187.32 87.82
  A 10.25 9.85 0.0 0 0 177.07 77.97
  L 51.37 77.97
  A 10.25 9.85 -0.0 0 0 41.12 87.82
  L 41.12 94.12
  A 0.95 0.95 0.0 0 0 42.07 95.07
  Z"
/>
<rect fill="#494847" x="-2.86" y="-2.77" transform="translate(170.07,125.81) rotate(-0.5)" width="5.72" height="5.54" rx="0.54"/>
</svg>
