<?xml version="1.0" encoding="UTF-8" standalone="no"?>
<!DOCTYPE svg PUBLIC "-//W3C//DTD SVG 1.1//EN" "http://www.w3.org/Graphics/SVG/1.1/DTD/svg11.dtd">
<svg xmlns="http://www.w3.org/2000/svg" version="1.1" viewBox="0.00 0.00 505.00 494.00">
<path fill="#4a4947" d="
  M 226.30 194.14
  A 0.72 0.72 0.0 0 0 225.57 194.83
  Q 225.41 199.19 225.59 204.01
  C 225.84 210.83 224.01 216.42 216.21 216.41
  Q 202.55 216.39 188.52 216.50
  C 183.20 216.53 178.73 214.20 178.60 208.21
  Q 178.46 201.75 178.57 195.18
  A 0.94 0.94 0.0 0 0 177.62 194.23
  Q 169.26 194.28 160.71 194.21
  C 155.59 194.17 152.83 191.15 151.86 186.42
  Q 150.16 178.16 148.65 170.60
  A 1.36 1.36 0.0 0 0 147.32 169.51
  Q 124.25 169.48 102.60 169.61
  Q 89.90 169.69 83.66 168.67
  Q 55.39 164.03 39.69 139.49
  Q 30.93 125.79 30.64 110.61
  Q 30.43 98.98 30.64 87.46
  Q 30.78 79.42 33.49 71.79
  C 41.18 50.16 59.62 34.74 82.29 30.44
  C 87.79 29.40 94.19 29.69 100.25 29.69
  Q 243.51 29.79 387.75 29.66
  Q 401.27 29.65 407.65 31.07
  Q 423.09 34.52 434.94 45.55
  Q 452.65 62.02 454.61 86.64
  Q 455.12 93.02 455.11 100.98
  Q 454.97 271.01 454.92 457.97
  C 454.92 464.36 453.53 468.93 445.75 468.93
  Q 245.75 468.92 45.75 468.93
  C 38.55 468.93 36.54 463.63 37.10 457.23
  Q 38.80 437.50 48.36 424.45
  Q 67.12 398.88 99.30 398.37
  Q 129.15 397.90 168.00 398.16
  C 217.30 398.50 266.52 398.19 315.48 398.21
  A 1.14 1.13 -89.8 0 0 316.62 397.07
  L 316.60 170.33
  A 0.81 0.81 0.0 0 0 315.79 169.52
  L 257.01 169.50
  A 1.17 1.16 6.5 0 0 255.87 170.40
  Q 254.21 177.44 252.97 184.68
  C 251.95 190.61 249.56 194.21 243.09 194.22
  Q 234.32 194.23 226.30 194.14
  Z
  M 324.96 153.19
  C 329.31 153.18 333.06 156.74 333.06 161.20
  Q 333.05 278.18 333.04 406.46
  C 333.04 410.93 329.67 414.47 325.08 414.47
  Q 213.84 414.52 103.37 414.44
  C 93.95 414.44 86.03 415.49 77.77 419.85
  Q 58.70 429.92 54.08 451.91
  A 0.67 0.67 0.0 0 0 54.74 452.72
  L 437.75 452.74
  A 0.73 0.73 0.0 0 0 438.48 452.01
  Q 438.46 271.95 438.51 90.78
  C 438.51 71.99 427.66 56.22 410.33 49.16
  C 399.80 44.87 388.69 45.93 377.50 45.91
  Q 225.11 45.63 98.50 45.87
  C 90.57 45.88 82.95 46.18 75.74 49.22
  Q 54.74 58.08 48.34 79.51
  C 46.17 86.79 46.52 94.52 46.41 102.23
  C 46.15 122.02 54.06 137.99 71.56 147.66
  C 77.81 151.11 85.94 153.18 92.92 153.19
  Q 209.06 153.33 324.96 153.19
  Z
  M 166.10 169.29
  A 0.90 0.90 0.0 0 0 165.22 170.37
  L 166.54 176.94
  A 0.90 0.90 0.0 0 0 167.43 177.66
  L 237.06 177.66
  A 0.90 0.90 0.0 0 0 237.94 176.93
  L 239.20 170.41
  A 0.90 0.90 0.0 0 0 238.32 169.34
  L 166.10 169.29
  Z
  M 208.9835 195.0624
  A 0.86 0.86 0.0 0 0 208.1250 194.2009
  L 195.6250 194.1791
  A 0.86 0.86 0.0 0 0 194.7635 195.0376
  L 194.7565 199.0176
  A 0.86 0.86 0.0 0 0 195.6150 199.8791
  L 208.1150 199.9009
  A 0.86 0.86 0.0 0 0 208.9765 199.0424
  L 208.9835 195.0624
  Z"
/>
<path fill="#4a4947" d="
  M 115.72 258.60
  Q 115.81 255.76 115.70 252.62
  C 115.49 246.13 118.48 241.70 125.74 241.71
  Q 199.12 241.81 270.01 241.64
  Q 273.90 241.63 277.31 241.68
  Q 282.11 241.74 284.30 243.25
  Q 287.97 245.79 287.98 250.24
  Q 288.09 286.04 288.03 321.49
  C 288.03 325.25 287.62 328.97 287.54 332.73
  Q 287.49 334.98 287.04 337.19
  C 281.78 362.78 262.83 382.44 237.29 387.34
  Q 230.35 388.67 218.42 388.59
  Q 195.79 388.43 175.66 388.51
  C 152.95 388.60 133.41 375.68 122.87 355.67
  A 1.66 1.66 0.0 0 0 121.35 354.78
  Q 116.02 354.97 110.48 354.77
  C 93.50 354.14 79.94 344.09 74.83 327.77
  Q 73.11 322.26 73.07 312.66
  Q 73.01 298.46 73.40 291.97
  C 74.49 273.79 90.19 259.87 108.44 259.24
  Q 111.75 259.13 114.99 259.28
  Q 115.70 259.31 115.72 258.60
  Z
  M 227.15 372.10
  C 248.47 372.04 265.82 356.56 270.45 336.16
  Q 271.83 330.11 271.69 316.72
  Q 271.39 286.90 271.54 258.65
  A 0.59 0.59 0.0 0 0 270.95 258.06
  L 133.20 258.26
  Q 131.83 258.26 131.83 259.63
  Q 132.02 294.65 132.03 325.74
  C 132.04 350.71 151.16 372.28 177.18 372.22
  Q 202.84 372.16 227.15 372.10
  Z
  M 116.44 338.02
  L 115.68 275.63
  A 0.21 0.21 0.0 0 0 115.47 275.42
  L 109.60 275.49
  A 21.02 20.56 89.3 0 0 89.29 296.76
  L 89.55 317.54
  A 21.02 20.56 89.3 0 0 110.36 338.31
  L 116.23 338.24
  A 0.21 0.21 0.0 0 0 116.44 338.02
  Z"
/>
</svg>
