<svg xmlns="http://www.w3.org/2000/svg" width="84" height="56" viewBox="0 0 84 56" fill="none">
  <path d="M8.47708 32.5423L42.3753 28.2033L75.1888 32.5423L76.6803 25.7627L83.8668 7.86439C83.8668 7.86439 79.121 17.4915 77.3583 21.9661C75.5956 26.4406 80.2057 3.66101 80.2057 3.66101C80.2057 3.66101 74.1041 20.74 65.8329 19.5254C57.512 18.3035 56.7482 0 56.7482 0C56.7482 0 51.8362 19.153 42.3753 19.5254C32.6245 19.9092 26.7821 0 26.7821 0C26.7821 0 26.7252 17.8015 18.6465 19.5254C10.1397 21.3406 3.73132 2.98304 3.73132 2.98304L6.20971 18.5762L6.98555 23.4576L8.47708 32.5423Z" fill="#700511"/>
  <path d="M8.47708 35.6609C8.47708 35.6609 29.3793 31.5629 42.3753 31.7287C55.3713 31.8946 74.782 35.6609 74.782 35.6609L75.1888 32.5423L42.3753 28.2033L8.47708 32.5423V35.6609Z" fill="white"/>
  <path d="M0.0703125 8.54235L6.98555 23.4576L6.20971 18.5762L0.0703125 8.54235Z" fill="#700511"/>
  <path d="M6.98555 44.0677C6.98555 44.0677 28.2224 39.0379 44.0024 39.9999C55.7676 40.7172 75.1888 44.0677 75.1888 44.0677L74.782 35.6609C74.782 35.6609 55.3713 31.8946 42.3753 31.7287C29.3793 31.5629 8.47708 35.6609 8.47708 35.6609L6.98555 44.0677Z" fill="#700511"/>
  <path d="M76.3074 48.1355C76.3074 48.1355 56.1245 44.3216 44.0024 44.0677C30.2691 43.7801 7.73131 47.5253 7.73131 47.5253C7.73131 47.5253 31.2683 51.4948 45.6295 51.2541C57.0776 51.0623 76.3074 48.1355 76.3074 48.1355Z" fill="white"/>
  <path d="M44.0024 39.9999C28.2224 39.0379 6.98555 44.0677 6.98555 44.0677L7.73131 47.5253C7.73131 47.5253 30.2691 43.7801 44.0024 44.0677C56.1245 44.3216 76.3074 48.1355 76.3074 48.1355L75.1888 44.0677C75.1888 44.0677 55.7676 40.7172 44.0024 39.9999Z" fill="#700511"/>
  <path d="M45.6295 51.2541C31.2683 51.4948 7.73131 47.5253 7.73131 47.5253V48.8135C7.73131 48.8135 13.3186 51.6098 20.0025 53.1524C28.6571 55.1499 39.3337 56.0116 44.0024 55.9999C52.2767 55.9792 57.7798 55.0529 65.8329 53.1524C70.1843 52.1255 76.6803 49.4914 76.6803 49.4914L76.3074 48.1355C76.3074 48.1355 57.0776 51.0623 45.6295 51.2541Z" fill="#700511"/>
</svg>