<svg xmlns="http://www.w3.org/2000/svg" width="84" height="56" viewBox="0 0 84 56" fill="none">
  <path d="M8.40676 32.5423L42.305 28.2033L75.1185 32.5423L76.61 25.7627L83.7964 7.86439C83.7964 7.86439 79.0507 17.4915 77.288 21.9661C75.5253 26.4406 80.1354 3.66101 80.1354 3.66101C80.1354 3.66101 74.0338 20.74 65.7626 19.5254C57.4417 18.3035 56.6779 0 56.6779 0C56.6779 0 51.7659 19.153 42.305 19.5254C32.5542 19.9092 26.7118 0 26.7118 0C26.7118 0 26.6549 17.8015 18.5762 19.5254C10.0694 21.3406 3.66101 2.98304 3.66101 2.98304L6.1394 18.5762L6.91524 23.4576L8.40676 32.5423Z" fill="black"/>
  <path d="M8.40676 35.6609C8.40676 35.6609 29.309 31.5629 42.305 31.7287C55.301 31.8946 74.7117 35.6609 74.7117 35.6609L75.1185 32.5423L42.305 28.2033L8.40676 32.5423V35.6609Z" fill="white"/>
  <path d="M0 8.54235L6.91524 23.4576L6.1394 18.5762L0 8.54235Z" fill="black"/>
  <path d="M6.91524 44.0677C6.91524 44.0677 28.1521 39.0379 43.9321 39.9999C55.6973 40.7172 75.1185 44.0677 75.1185 44.0677L74.7117 35.6609C74.7117 35.6609 55.301 31.8946 42.305 31.7287C29.309 31.5629 8.40676 35.6609 8.40676 35.6609L6.91524 44.0677Z" fill="black"/>
  <path d="M76.2371 48.1355C76.2371 48.1355 56.0542 44.3216 43.9321 44.0677C30.1988 43.7801 7.661 47.5253 7.661 47.5253C7.661 47.5253 31.198 51.4948 45.5592 51.2541C57.0073 51.0623 76.2371 48.1355 76.2371 48.1355Z" fill="white"/>
  <path d="M43.9321 39.9999C28.1521 39.0379 6.91524 44.0677 6.91524 44.0677L7.661 47.5253C7.661 47.5253 30.1988 43.7801 43.9321 44.0677C56.0542 44.3216 76.2371 48.1355 76.2371 48.1355L75.1185 44.0677C75.1185 44.0677 55.6973 40.7172 43.9321 39.9999Z" fill="#3C3B40"/>
  <path d="M45.5592 51.2541C31.198 51.4948 7.661 47.5253 7.661 47.5253V48.8135C7.661 48.8135 13.2483 51.6098 19.9322 53.1524C28.5868 55.1499 39.2634 56.0116 43.9321 55.9999C52.2064 55.9792 57.7095 55.0529 65.7626 53.1524C70.114 52.1255 76.61 49.4914 76.61 49.4914L76.2371 48.1355C76.2371 48.1355 57.0073 51.0623 45.5592 51.2541Z" fill="black"/>
</svg>