<svg xmlns="http://www.w3.org/2000/svg" width="240" height="240" viewBox="0 0 240 240" fill="none">
  <path d="M120 240C186.274 240 240 186.274 240 120C240 53.7258 186.274 0 120 0C53.7258 0 0 53.7258 0 120C0 186.274 53.7258 240 120 240Z" fill="#700511"/>
  <path d="M108.107 165.776C105.408 165.781 102.78 164.908 100.62 163.288L100.486 163.188L72.2844 141.614C70.9783 140.613 69.8822 139.364 69.0587 137.939C68.2352 136.514 67.7004 134.941 67.4849 133.309C67.2694 131.678 67.3773 130.02 67.8026 128.43C68.2279 126.84 68.9621 125.349 69.9635 124.043C70.9648 122.737 72.2136 121.641 73.6386 120.817C75.0635 119.994 76.6367 119.459 78.2684 119.244C79.9 119.028 81.5581 119.136 83.148 119.561C84.7379 119.987 86.2285 120.721 87.5346 121.722L105.801 135.73L148.967 79.4162C149.968 78.1106 151.216 77.0149 152.64 76.1918C154.065 75.3686 155.637 74.834 157.268 74.6186C158.899 74.4032 160.556 74.5111 162.146 74.9362C163.735 75.3613 165.225 76.0953 166.53 77.0963L166.534 77.099L166.266 77.471L166.541 77.099C169.175 79.1233 170.899 82.1099 171.333 85.4034C171.767 88.6969 170.878 92.0283 168.859 94.6664L118.087 160.874C116.912 162.4 115.402 163.634 113.673 164.482C111.945 165.329 110.044 165.767 108.118 165.762L108.107 165.776Z" fill="#FAFAFA"/>
</svg>